<svg version="1.1" id="Layer_1" xmlns="http://www.w3.org/2000/svg" x="0" y="0" width="100%" viewBox="0 0 80 80" xml:space="preserve"><path fill="#FFF" d="M81 21c0 5.688 0 11.376-.468 17.532C73.823 39 67.584 39 61.007 39l.324 4H81c0 5.688 0 11.376-.469 17.532-14.468.468-28.468.488-42.468.455-4.045-.009-8.47 1.02-11.346-3.095-2.45-3.506-6.167-5.81-5.933-11.401C21.415 31.35 21 16.167 21 1c5.688 0 11.376 0 17.532.468C39 8.177 39 14.416 39 20.993l4-.324V1c5.688 0 11.376 0 17.532.469C61 8.279 61 14.62 61 21h20z"/><path d="M20.531 1c.469 15.167.884 30.35.253 45.49-.234 5.593 3.484 7.896 5.933 11.402 2.875 4.114 7.301 3.086 11.346 3.095 14 .033 28 .013 42.468.013C81 67.652 81 74.304 81 80.978H1.11c0-26.644 0-53.311-.003-79.978H20.53zM81 20.531C74.576 21 68.152 21 61 21V1.469C67.593 1 74.185 1 81 1v19.531z"/><path d="M42.6 1c.4 6.43.4 12.859.4 19.669l-4 .324V1.468C40.067 1 41.133 1 42.6 1zM81 42.6c-6.43.4-12.859.4-19.669.4l-.324-4h19.525C81 40.067 81 41.133 81 42.6z"/></svg>